<svg width="872" height="192" viewBox="0 0 872 192" fill="none" xmlns="http://www.w3.org/2000/svg">
    <path d="M193.04 94.5098V94.6698C193.04 119.59 183.5 142.4 167.8 159.39C163.76 163.91 159.28 168.04 154.44 171.71C154.4 156.87 148.8 143.34 139.6 133.12C148.84 122.96 154.44 109.42 154.44 94.6397V94.5298C154.42 78.5498 147.9 64.1198 137.44 53.6598C131.39 47.6098 124.05 42.8998 115.83 39.9898V0.00976562C130.1 2.91977 143.22 8.98977 154.44 17.4498C158.07 20.1798 161.51 23.1698 164.72 26.3798C182.17 43.8198 192.99 67.8698 193.04 94.5098Z" fill="#2B62FA"/>
    <path d="M77.21 0V39.98C69 42.89 61.66 47.62 55.6 53.68C45.14 64.14 38.62 78.57 38.6 94.55V94.66C38.6 109.44 44.2 122.98 53.44 133.14C44.23 143.37 38.62 156.9 38.6 171.75C33.76 168.07 29.28 163.94 25.24 159.41C9.54 142.42 0 119.6 0 94.69V94.53C0.05 67.89 10.87 43.84 28.32 26.4C31.53 23.19 34.97 20.2 38.6 17.46C49.82 8.96002 62.93 2.89 77.21 0Z" fill="#2B62FA"/>
    <path d="M115.83 94.6091C115.83 99.5891 113.92 104.149 110.77 107.559C107.28 111.469 102.17 113.889 96.51 113.889C90.84 113.889 85.76 111.459 82.27 107.559C79.12 104.159 77.21 99.5991 77.21 94.6091C77.21 89.2591 79.38 84.4491 82.88 80.9491C86.37 77.4491 91.16 75.2891 96.5 75.2891C101.83 75.2891 106.66 77.4491 110.15 80.9491C113.65 84.4491 115.83 89.2691 115.83 94.6091Z" fill="#2B62FA"/>
    <path d="M115.83 171.84C115.83 176.82 113.92 181.38 110.77 184.79C107.31 188.68 102.23 191.09 96.62 191.12H96.44C90.79 191.1 85.75 188.68 82.27 184.79C79.12 181.39 77.21 176.83 77.21 171.84C77.21 166.49 79.38 161.68 82.88 158.18C86.37 154.68 91.16 152.52 96.5 152.52C101.83 152.52 106.66 154.68 110.15 158.18C113.65 161.68 115.83 166.49 115.83 171.84Z" fill="#2B62FA" stroke="#2B62FA" stroke-miterlimit="10"/>
    <path d="M77.21 171.84C77.21 176.82 79.12 181.38 82.27 184.79C85.75 188.69 90.79 191.1 96.44 191.12" stroke="#FF00FF" stroke-miterlimit="10"/>
    <path d="M77.21 171.84C77.21 176.82 79.12 181.38 82.27 184.79C85.75 188.69 90.79 191.1 96.44 191.12" stroke="#FF00FF" stroke-miterlimit="10"/>
    <path d="M77.21 171.84C77.21 176.82 79.12 181.38 82.27 184.79C85.75 188.69 90.79 191.1 96.44 191.12" stroke="#FF00FF" stroke-miterlimit="10"/>
    <path d="M77.21 171.84C77.21 176.82 79.12 181.38 82.27 184.79C85.75 188.69 90.79 191.1 96.44 191.12" stroke="#2B62FA" stroke-miterlimit="10"/>
    <path d="M232.94 94.1612C232.94 61.0312 259.16 35.6113 291.49 35.6113C323.82 35.6113 350.04 61.0212 350.04 94.1612C350.04 127.291 323.82 152.711 291.49 152.711C259.16 152.711 232.94 127.301 232.94 94.1612ZM324.3 94.1612C324.3 74.0612 309.82 60.7113 291.49 60.7113C273.16 60.7113 258.68 74.0612 258.68 94.1612C258.68 114.261 273.16 127.621 291.49 127.621C309.82 127.621 324.3 114.271 324.3 94.1612Z" fill="black"/>
    <path d="M359.68 110.249C359.68 86.2792 377.86 67.7891 402.3 67.7891C417.9 67.7891 431.73 75.9892 438.65 88.3792L417.58 100.599C414.85 94.9691 409.06 91.5891 401.98 91.5891C391.53 91.5891 383.8 99.1492 383.8 110.249C383.8 121.349 391.52 128.909 401.98 128.909C409.06 128.909 415.01 125.529 417.58 119.899L438.65 131.959C431.73 144.499 418.06 152.709 402.3 152.709C377.85 152.709 359.68 134.209 359.68 110.249Z" fill="black"/>
    <path d="M472.6 93.2014V121.671C472.6 128.591 478.55 129.231 489.17 128.591V150.471C457.64 153.691 448.48 144.201 448.48 121.681V93.2112V70.0513V47.5312H472.61V70.0513H489.18V93.2112H472.6V93.2014Z" fill="black"/>
    <path d="M583.74 70.0391V150.459H559.61V142.899C554.3 149.009 546.42 152.709 535.65 152.709C514.58 152.709 497.21 134.209 497.21 110.249C497.21 86.2892 514.58 67.7891 535.65 67.7891C546.43 67.7891 554.31 71.4891 559.61 77.5991V70.0391H583.74ZM559.61 110.249C559.61 98.1892 551.57 90.6292 540.47 90.6292C529.37 90.6292 521.33 98.1892 521.33 110.249C521.33 122.309 529.37 129.869 540.47 129.869C551.57 129.869 559.61 122.309 559.61 110.249Z" fill="black"/>
    <path d="M678.63 101.079V150.459H654.5V104.619C654.5 94.6492 648.23 89.9791 640.51 89.9791C631.66 89.9791 625.55 95.1291 625.55 106.549V150.459H601.42V70.0391H625.55V77.5991C629.89 71.6491 637.93 67.7891 648.55 67.7891C664.79 67.7891 678.63 79.3691 678.63 101.079Z" fill="black"/>
    <path d="M772.39 101.079V150.459H748.26V104.619C748.26 94.6492 741.99 89.9791 734.27 89.9791C725.42 89.9791 719.31 95.1291 719.31 106.549V150.459H695.18V70.0391H719.31V77.5991C723.65 71.6491 731.69 67.7891 742.31 67.7891C758.56 67.7891 772.39 79.3691 772.39 101.079Z" fill="black"/>
    <path d="M871.46 70.0391V150.459H847.33V142.899C842.02 149.009 834.14 152.709 823.36 152.709C802.29 152.709 784.92 134.209 784.92 110.249C784.92 86.2892 802.29 67.7891 823.36 67.7891C834.14 67.7891 842.02 71.4891 847.33 77.5991V70.0391H871.46ZM847.34 110.249C847.34 98.1892 839.3 90.6292 828.2 90.6292C817.1 90.6292 809.06 98.1892 809.06 110.249C809.06 122.309 817.1 129.869 828.2 129.869C839.3 129.869 847.34 122.309 847.34 110.249Z" fill="black"/>
</svg>
